<mxfile host="app.diagrams.net" agent="Mozilla/5.0 (Windows NT 10.0; Win64; x64) AppleWebKit/537.36 (KHTML, like Gecko) Chrome/133.0.0.0 Safari/537.36" version="26.1.0">
  <diagram name="Trang-1" id="7JNEKgZgZRjt4ox5-sU_">
    <mxGraphModel dx="1218" dy="1773" grid="1" gridSize="10" guides="1" tooltips="1" connect="1" arrows="1" fold="1" page="1" pageScale="1" pageWidth="827" pageHeight="1169" math="0" shadow="0">
      <root>
        <mxCell id="0" />
        <mxCell id="1" parent="0" />
        <mxCell id="IZtvYsub-rzBRj75f5gO-3" value="ProHomeSync" style="swimlane;childLayout=stackLayout;resizeParent=1;resizeParentMax=0;startSize=20;html=1;" parent="1" vertex="1">
          <mxGeometry x="230" y="-50" width="1380" height="2540" as="geometry">
            <mxRectangle x="230" y="-50" width="60" height="30" as="alternateBounds" />
          </mxGeometry>
        </mxCell>
        <mxCell id="hBP3JbaCI2nq2AsKA252-29" style="edgeStyle=orthogonalEdgeStyle;rounded=0;orthogonalLoop=1;jettySize=auto;html=1;" edge="1" parent="IZtvYsub-rzBRj75f5gO-3" source="hBP3JbaCI2nq2AsKA252-28" target="hBP3JbaCI2nq2AsKA252-31">
          <mxGeometry relative="1" as="geometry">
            <mxPoint x="740" y="220" as="targetPoint" />
            <Array as="points">
              <mxPoint x="670" y="280" />
              <mxPoint x="670" y="280" />
            </Array>
          </mxGeometry>
        </mxCell>
        <mxCell id="hBP3JbaCI2nq2AsKA252-73" style="edgeStyle=orthogonalEdgeStyle;rounded=0;orthogonalLoop=1;jettySize=auto;html=1;entryX=0.857;entryY=0.357;entryDx=0;entryDy=0;entryPerimeter=0;" edge="1" parent="IZtvYsub-rzBRj75f5gO-3" source="hBP3JbaCI2nq2AsKA252-31" target="hBP3JbaCI2nq2AsKA252-37">
          <mxGeometry relative="1" as="geometry">
            <mxPoint x="1000" y="140" as="targetPoint" />
            <Array as="points">
              <mxPoint x="1001" y="280" />
              <mxPoint x="1001" y="140" />
            </Array>
          </mxGeometry>
        </mxCell>
        <mxCell id="hBP3JbaCI2nq2AsKA252-74" style="edgeStyle=orthogonalEdgeStyle;rounded=0;orthogonalLoop=1;jettySize=auto;html=1;entryX=1;entryY=0;entryDx=0;entryDy=0;" edge="1" parent="IZtvYsub-rzBRj75f5gO-3" source="hBP3JbaCI2nq2AsKA252-55" target="hBP3JbaCI2nq2AsKA252-37">
          <mxGeometry relative="1" as="geometry">
            <mxPoint x="1040" y="120" as="targetPoint" />
            <Array as="points">
              <mxPoint x="1041" y="520" />
              <mxPoint x="1041" y="120" />
              <mxPoint x="545" y="120" />
            </Array>
          </mxGeometry>
        </mxCell>
        <mxCell id="hBP3JbaCI2nq2AsKA252-83" style="edgeStyle=orthogonalEdgeStyle;rounded=0;orthogonalLoop=1;jettySize=auto;html=1;exitX=0;exitY=0.5;exitDx=0;exitDy=0;entryX=1;entryY=1;entryDx=0;entryDy=0;" edge="1" parent="IZtvYsub-rzBRj75f5gO-3" source="hBP3JbaCI2nq2AsKA252-81" target="hBP3JbaCI2nq2AsKA252-5">
          <mxGeometry relative="1" as="geometry">
            <mxPoint x="300" y="220" as="targetPoint" />
            <mxPoint x="745" y="720" as="sourcePoint" />
            <Array as="points">
              <mxPoint x="370" y="710" />
              <mxPoint x="370" y="175" />
            </Array>
          </mxGeometry>
        </mxCell>
        <mxCell id="hBP3JbaCI2nq2AsKA252-88" style="edgeStyle=orthogonalEdgeStyle;rounded=0;orthogonalLoop=1;jettySize=auto;html=1;entryX=0.75;entryY=0;entryDx=0;entryDy=0;" edge="1" parent="IZtvYsub-rzBRj75f5gO-3" source="hBP3JbaCI2nq2AsKA252-85" target="hBP3JbaCI2nq2AsKA252-13">
          <mxGeometry relative="1" as="geometry">
            <mxPoint x="1050" y="810" as="targetPoint" />
            <Array as="points">
              <mxPoint x="1051" y="930" />
              <mxPoint x="1051" y="810" />
              <mxPoint x="195" y="810" />
            </Array>
          </mxGeometry>
        </mxCell>
        <mxCell id="hBP3JbaCI2nq2AsKA252-108" style="edgeStyle=orthogonalEdgeStyle;rounded=0;orthogonalLoop=1;jettySize=auto;html=1;exitX=0.5;exitY=1;exitDx=0;exitDy=0;entryX=0.25;entryY=0;entryDx=0;entryDy=0;" edge="1" parent="IZtvYsub-rzBRj75f5gO-3" source="hBP3JbaCI2nq2AsKA252-102" target="hBP3JbaCI2nq2AsKA252-105">
          <mxGeometry relative="1" as="geometry">
            <mxPoint x="990" y="1380" as="targetPoint" />
            <Array as="points">
              <mxPoint x="170" y="1370" />
              <mxPoint x="1020" y="1370" />
            </Array>
          </mxGeometry>
        </mxCell>
        <mxCell id="IZtvYsub-rzBRj75f5gO-5" value="Người dùng" style="swimlane;startSize=20;html=1;" parent="IZtvYsub-rzBRj75f5gO-3" vertex="1">
          <mxGeometry y="20" width="610" height="2520" as="geometry" />
        </mxCell>
        <mxCell id="hBP3JbaCI2nq2AsKA252-3" value="" style="ellipse;html=1;shape=startState;fillColor=#000000;strokeColor=#ff0000;" vertex="1" parent="IZtvYsub-rzBRj75f5gO-5">
          <mxGeometry x="150" y="30" width="30" height="30" as="geometry" />
        </mxCell>
        <mxCell id="hBP3JbaCI2nq2AsKA252-4" value="" style="edgeStyle=orthogonalEdgeStyle;html=1;verticalAlign=bottom;endArrow=open;endSize=8;strokeColor=#ff0000;rounded=0;" edge="1" source="hBP3JbaCI2nq2AsKA252-3" parent="IZtvYsub-rzBRj75f5gO-5">
          <mxGeometry relative="1" as="geometry">
            <mxPoint x="165" y="80" as="targetPoint" />
          </mxGeometry>
        </mxCell>
        <mxCell id="hBP3JbaCI2nq2AsKA252-18" style="edgeStyle=orthogonalEdgeStyle;rounded=0;orthogonalLoop=1;jettySize=auto;html=1;entryX=0.5;entryY=0;entryDx=0;entryDy=0;" edge="1" parent="IZtvYsub-rzBRj75f5gO-5" source="hBP3JbaCI2nq2AsKA252-5" target="hBP3JbaCI2nq2AsKA252-13">
          <mxGeometry relative="1" as="geometry" />
        </mxCell>
        <mxCell id="hBP3JbaCI2nq2AsKA252-71" style="edgeStyle=orthogonalEdgeStyle;rounded=0;orthogonalLoop=1;jettySize=auto;html=1;" edge="1" parent="IZtvYsub-rzBRj75f5gO-5" source="hBP3JbaCI2nq2AsKA252-5" target="hBP3JbaCI2nq2AsKA252-69">
          <mxGeometry relative="1" as="geometry" />
        </mxCell>
        <mxCell id="hBP3JbaCI2nq2AsKA252-5" value="Đăng nhập/Đăng ký" style="rhombus;whiteSpace=wrap;html=1;fontColor=#000000;fillColor=#ffffc0;strokeColor=#ff0000;" vertex="1" parent="IZtvYsub-rzBRj75f5gO-5">
          <mxGeometry x="95" y="80" width="140" height="100" as="geometry" />
        </mxCell>
        <mxCell id="hBP3JbaCI2nq2AsKA252-10" value="" style="ellipse;html=1;shape=endState;fillColor=#000000;strokeColor=#ff0000;" vertex="1" parent="IZtvYsub-rzBRj75f5gO-5">
          <mxGeometry x="10" y="115.00333333333349" width="30" height="30" as="geometry" />
        </mxCell>
        <mxCell id="hBP3JbaCI2nq2AsKA252-9" style="edgeStyle=orthogonalEdgeStyle;rounded=0;orthogonalLoop=1;jettySize=auto;html=1;exitX=0;exitY=0.5;exitDx=0;exitDy=0;" edge="1" parent="IZtvYsub-rzBRj75f5gO-5" source="hBP3JbaCI2nq2AsKA252-5" target="hBP3JbaCI2nq2AsKA252-10">
          <mxGeometry relative="1" as="geometry">
            <mxPoint x="40" y="100.33333333333348" as="targetPoint" />
            <Array as="points">
              <mxPoint x="70" y="130" />
              <mxPoint x="70" y="130" />
            </Array>
          </mxGeometry>
        </mxCell>
        <mxCell id="hBP3JbaCI2nq2AsKA252-15" value="Dừng" style="text;align=center;fontStyle=1;verticalAlign=middle;spacingLeft=3;spacingRight=3;strokeColor=none;rotatable=0;points=[[0,0.5],[1,0.5]];portConstraint=eastwest;html=1;" vertex="1" parent="IZtvYsub-rzBRj75f5gO-5">
          <mxGeometry x="30" y="110" width="80" height="26" as="geometry" />
        </mxCell>
        <mxCell id="hBP3JbaCI2nq2AsKA252-84" style="edgeStyle=orthogonalEdgeStyle;rounded=0;orthogonalLoop=1;jettySize=auto;html=1;" edge="1" parent="IZtvYsub-rzBRj75f5gO-5" source="hBP3JbaCI2nq2AsKA252-13">
          <mxGeometry relative="1" as="geometry">
            <mxPoint x="730" y="910" as="targetPoint" />
          </mxGeometry>
        </mxCell>
        <mxCell id="hBP3JbaCI2nq2AsKA252-13" value="Nhập tên đăng nhập,&lt;br&gt;mật khẩu" style="rounded=1;whiteSpace=wrap;html=1;arcSize=40;fontColor=#000000;fillColor=#ffffc0;strokeColor=#ff0000;" vertex="1" parent="IZtvYsub-rzBRj75f5gO-5">
          <mxGeometry x="105" y="890" width="120" height="40" as="geometry" />
        </mxCell>
        <mxCell id="hBP3JbaCI2nq2AsKA252-28" value="Nhập tên đăng nhập,&lt;br&gt;2 lần mật khẩu" style="rounded=1;whiteSpace=wrap;html=1;arcSize=40;fontColor=#000000;fillColor=#ffffc0;strokeColor=#ff0000;" vertex="1" parent="IZtvYsub-rzBRj75f5gO-5">
          <mxGeometry x="450" y="240" width="120" height="40" as="geometry" />
        </mxCell>
        <mxCell id="hBP3JbaCI2nq2AsKA252-40" style="edgeStyle=orthogonalEdgeStyle;rounded=0;orthogonalLoop=1;jettySize=auto;html=1;exitX=0.5;exitY=0;exitDx=0;exitDy=0;" edge="1" parent="IZtvYsub-rzBRj75f5gO-5" source="hBP3JbaCI2nq2AsKA252-37" target="hBP3JbaCI2nq2AsKA252-5">
          <mxGeometry relative="1" as="geometry">
            <mxPoint x="210" y="70" as="targetPoint" />
            <Array as="points">
              <mxPoint x="510" y="60" />
              <mxPoint x="210" y="60" />
            </Array>
          </mxGeometry>
        </mxCell>
        <mxCell id="hBP3JbaCI2nq2AsKA252-66" style="edgeStyle=orthogonalEdgeStyle;rounded=0;orthogonalLoop=1;jettySize=auto;html=1;entryX=0.5;entryY=0;entryDx=0;entryDy=0;" edge="1" parent="IZtvYsub-rzBRj75f5gO-5" source="hBP3JbaCI2nq2AsKA252-37" target="hBP3JbaCI2nq2AsKA252-28">
          <mxGeometry relative="1" as="geometry">
            <mxPoint x="510" y="210" as="targetPoint" />
          </mxGeometry>
        </mxCell>
        <mxCell id="hBP3JbaCI2nq2AsKA252-37" value="Đăng ký/&lt;br&gt;Trở về" style="rhombus;whiteSpace=wrap;html=1;fontColor=#000000;fillColor=#ffffc0;strokeColor=#ff0000;" vertex="1" parent="IZtvYsub-rzBRj75f5gO-5">
          <mxGeometry x="440" y="95" width="140" height="70" as="geometry" />
        </mxCell>
        <mxCell id="hBP3JbaCI2nq2AsKA252-41" value="Trở về" style="text;align=center;fontStyle=1;verticalAlign=middle;spacingLeft=3;spacingRight=3;strokeColor=none;rotatable=0;points=[[0,0.5],[1,0.5]];portConstraint=eastwest;html=1;" vertex="1" parent="IZtvYsub-rzBRj75f5gO-5">
          <mxGeometry x="450" y="69" width="80" height="26" as="geometry" />
        </mxCell>
        <mxCell id="hBP3JbaCI2nq2AsKA252-72" style="edgeStyle=orthogonalEdgeStyle;rounded=0;orthogonalLoop=1;jettySize=auto;html=1;" edge="1" parent="IZtvYsub-rzBRj75f5gO-5" source="hBP3JbaCI2nq2AsKA252-69" target="hBP3JbaCI2nq2AsKA252-37">
          <mxGeometry relative="1" as="geometry" />
        </mxCell>
        <mxCell id="hBP3JbaCI2nq2AsKA252-69" value="Nhấn nút đăng ký" style="rounded=1;whiteSpace=wrap;html=1;arcSize=40;fontColor=#000000;fillColor=#ffffc0;strokeColor=#ff0000;" vertex="1" parent="IZtvYsub-rzBRj75f5gO-5">
          <mxGeometry x="270" y="110" width="120" height="40" as="geometry" />
        </mxCell>
        <mxCell id="hBP3JbaCI2nq2AsKA252-102" value="Nhập tên nhóm,&lt;br&gt;nhấn nút tạo" style="rounded=1;whiteSpace=wrap;html=1;arcSize=40;fontColor=#000000;fillColor=#ffffc0;strokeColor=#ff0000;" vertex="1" parent="IZtvYsub-rzBRj75f5gO-5">
          <mxGeometry x="110" y="1290" width="120" height="40" as="geometry" />
        </mxCell>
        <mxCell id="hBP3JbaCI2nq2AsKA252-111" value="Lựa chọn&lt;br&gt;tính năng" style="rhombus;whiteSpace=wrap;html=1;fontColor=#000000;fillColor=#ffffc0;strokeColor=#ff0000;" vertex="1" parent="IZtvYsub-rzBRj75f5gO-5">
          <mxGeometry x="95" y="1470" width="150" height="90" as="geometry" />
        </mxCell>
        <mxCell id="hBP3JbaCI2nq2AsKA252-116" value="Add khoản chi mới" style="text;align=center;fontStyle=1;verticalAlign=middle;spacingLeft=3;spacingRight=3;strokeColor=none;rotatable=0;points=[[0,0.5],[1,0.5]];portConstraint=eastwest;html=1;" vertex="1" parent="IZtvYsub-rzBRj75f5gO-5">
          <mxGeometry x="260" y="1490" width="80" height="26" as="geometry" />
        </mxCell>
        <mxCell id="hBP3JbaCI2nq2AsKA252-115" value="Nhập:&lt;br&gt;Tên khoản chi&lt;br&gt;Số tiền&lt;br&gt;Người tạo&lt;br&gt;File minh chứng" style="rounded=1;whiteSpace=wrap;html=1;arcSize=40;fontColor=#000000;fillColor=#ffffc0;strokeColor=#ff0000;" vertex="1" parent="IZtvYsub-rzBRj75f5gO-5">
          <mxGeometry x="390" y="1620" width="140" height="80" as="geometry" />
        </mxCell>
        <mxCell id="hBP3JbaCI2nq2AsKA252-114" style="edgeStyle=orthogonalEdgeStyle;rounded=0;orthogonalLoop=1;jettySize=auto;html=1;" edge="1" parent="IZtvYsub-rzBRj75f5gO-5" source="hBP3JbaCI2nq2AsKA252-111" target="hBP3JbaCI2nq2AsKA252-115">
          <mxGeometry relative="1" as="geometry">
            <mxPoint x="800" y="1515" as="targetPoint" />
          </mxGeometry>
        </mxCell>
        <mxCell id="hBP3JbaCI2nq2AsKA252-122" value="Tính toán&lt;br&gt;khoản chi" style="text;align=center;fontStyle=1;verticalAlign=middle;spacingLeft=3;spacingRight=3;strokeColor=none;rotatable=0;points=[[0,0.5],[1,0.5]];portConstraint=eastwest;html=1;" vertex="1" parent="IZtvYsub-rzBRj75f5gO-5">
          <mxGeometry x="165" y="1560" width="80" height="26" as="geometry" />
        </mxCell>
        <mxCell id="hBP3JbaCI2nq2AsKA252-136" value="Condition" style="rhombus;whiteSpace=wrap;html=1;fontColor=#000000;fillColor=#ffffc0;strokeColor=#ff0000;" vertex="1" parent="IZtvYsub-rzBRj75f5gO-5">
          <mxGeometry x="170" y="2020" width="150" height="90" as="geometry" />
        </mxCell>
        <mxCell id="hBP3JbaCI2nq2AsKA252-137" value="no" style="edgeStyle=orthogonalEdgeStyle;html=1;align=left;verticalAlign=bottom;endArrow=open;endSize=8;strokeColor=#ff0000;rounded=0;" edge="1" source="hBP3JbaCI2nq2AsKA252-136" parent="IZtvYsub-rzBRj75f5gO-5">
          <mxGeometry x="-1" relative="1" as="geometry">
            <mxPoint x="350" y="2040" as="targetPoint" />
          </mxGeometry>
        </mxCell>
        <mxCell id="hBP3JbaCI2nq2AsKA252-138" value="yes" style="edgeStyle=orthogonalEdgeStyle;html=1;align=left;verticalAlign=top;endArrow=open;endSize=8;strokeColor=#ff0000;rounded=0;" edge="1" source="hBP3JbaCI2nq2AsKA252-136" parent="IZtvYsub-rzBRj75f5gO-5">
          <mxGeometry x="-1" relative="1" as="geometry">
            <mxPoint x="210" y="2120" as="targetPoint" />
          </mxGeometry>
        </mxCell>
        <mxCell id="IZtvYsub-rzBRj75f5gO-6" value="Hệ thống" style="swimlane;startSize=20;html=1;" parent="IZtvYsub-rzBRj75f5gO-3" vertex="1">
          <mxGeometry x="610" y="20" width="770" height="2520" as="geometry">
            <mxRectangle x="320" y="20" width="40" height="570" as="alternateBounds" />
          </mxGeometry>
        </mxCell>
        <mxCell id="hBP3JbaCI2nq2AsKA252-68" style="edgeStyle=orthogonalEdgeStyle;rounded=0;orthogonalLoop=1;jettySize=auto;html=1;entryX=0.5;entryY=0;entryDx=0;entryDy=0;" edge="1" parent="IZtvYsub-rzBRj75f5gO-6" source="hBP3JbaCI2nq2AsKA252-31" target="hBP3JbaCI2nq2AsKA252-55">
          <mxGeometry relative="1" as="geometry">
            <mxPoint x="200" y="390" as="targetPoint" />
          </mxGeometry>
        </mxCell>
        <mxCell id="hBP3JbaCI2nq2AsKA252-31" value="Kiểm tra&lt;br&gt;tên đăng nhập" style="rhombus;whiteSpace=wrap;html=1;fontColor=#000000;fillColor=#ffffc0;strokeColor=#ff0000;" vertex="1" parent="IZtvYsub-rzBRj75f5gO-6">
          <mxGeometry x="130" y="220" width="140" height="80" as="geometry" />
        </mxCell>
        <mxCell id="hBP3JbaCI2nq2AsKA252-35" value="Trùng" style="text;align=center;fontStyle=1;verticalAlign=middle;spacingLeft=3;spacingRight=3;strokeColor=none;rotatable=0;points=[[0,0.5],[1,0.5]];portConstraint=eastwest;html=1;" vertex="1" parent="IZtvYsub-rzBRj75f5gO-6">
          <mxGeometry x="250" y="240" width="80" height="26" as="geometry" />
        </mxCell>
        <mxCell id="hBP3JbaCI2nq2AsKA252-44" value="Không trùng" style="text;align=center;fontStyle=1;verticalAlign=middle;spacingLeft=3;spacingRight=3;strokeColor=none;rotatable=0;points=[[0,0.5],[1,0.5]];portConstraint=eastwest;html=1;" vertex="1" parent="IZtvYsub-rzBRj75f5gO-6">
          <mxGeometry x="200" y="300" width="80" height="26" as="geometry" />
        </mxCell>
        <mxCell id="hBP3JbaCI2nq2AsKA252-75" style="edgeStyle=orthogonalEdgeStyle;rounded=0;orthogonalLoop=1;jettySize=auto;html=1;" edge="1" parent="IZtvYsub-rzBRj75f5gO-6" source="hBP3JbaCI2nq2AsKA252-55">
          <mxGeometry relative="1" as="geometry">
            <mxPoint x="200" y="590" as="targetPoint" />
          </mxGeometry>
        </mxCell>
        <mxCell id="hBP3JbaCI2nq2AsKA252-55" value="Kiểm tra 2 mk&lt;br&gt;trùng nhau" style="rhombus;whiteSpace=wrap;html=1;fontColor=#000000;fillColor=#ffffc0;strokeColor=#ff0000;" vertex="1" parent="IZtvYsub-rzBRj75f5gO-6">
          <mxGeometry x="120" y="460" width="160" height="80" as="geometry" />
        </mxCell>
        <mxCell id="hBP3JbaCI2nq2AsKA252-61" value="Không trùng khớp" style="text;align=center;fontStyle=1;verticalAlign=middle;spacingLeft=3;spacingRight=3;strokeColor=none;rotatable=0;points=[[0,0.5],[1,0.5]];portConstraint=eastwest;html=1;" vertex="1" parent="IZtvYsub-rzBRj75f5gO-6">
          <mxGeometry x="290" y="474" width="80" height="26" as="geometry" />
        </mxCell>
        <mxCell id="hBP3JbaCI2nq2AsKA252-77" value="Trùng khớp" style="text;align=center;fontStyle=1;verticalAlign=middle;spacingLeft=3;spacingRight=3;strokeColor=none;rotatable=0;points=[[0,0.5],[1,0.5]];portConstraint=eastwest;html=1;" vertex="1" parent="IZtvYsub-rzBRj75f5gO-6">
          <mxGeometry x="200" y="540" width="80" height="26" as="geometry" />
        </mxCell>
        <mxCell id="hBP3JbaCI2nq2AsKA252-78" value="Lưu lại tài khoản" style="rounded=1;whiteSpace=wrap;html=1;arcSize=40;fontColor=#000000;fillColor=#ffffc0;strokeColor=#ff0000;" vertex="1" parent="IZtvYsub-rzBRj75f5gO-6">
          <mxGeometry x="140" y="590" width="120" height="40" as="geometry" />
        </mxCell>
        <mxCell id="hBP3JbaCI2nq2AsKA252-81" value="Chuyển về màn hình đăng nhập" style="rounded=1;whiteSpace=wrap;html=1;arcSize=40;fontColor=#000000;fillColor=#ffffc0;strokeColor=#ff0000;" vertex="1" parent="IZtvYsub-rzBRj75f5gO-6">
          <mxGeometry x="140" y="670" width="120" height="40" as="geometry" />
        </mxCell>
        <mxCell id="hBP3JbaCI2nq2AsKA252-80" style="edgeStyle=orthogonalEdgeStyle;rounded=0;orthogonalLoop=1;jettySize=auto;html=1;" edge="1" parent="IZtvYsub-rzBRj75f5gO-6" source="hBP3JbaCI2nq2AsKA252-78" target="hBP3JbaCI2nq2AsKA252-81">
          <mxGeometry relative="1" as="geometry">
            <mxPoint x="200" y="670" as="targetPoint" />
          </mxGeometry>
        </mxCell>
        <mxCell id="hBP3JbaCI2nq2AsKA252-85" value="Đối chiếu tên đăng nhập,&lt;br&gt;mật khẩu trong file" style="rhombus;whiteSpace=wrap;html=1;fontColor=#000000;fillColor=#ffffc0;strokeColor=#ff0000;" vertex="1" parent="IZtvYsub-rzBRj75f5gO-6">
          <mxGeometry x="110" y="850" width="180" height="120" as="geometry" />
        </mxCell>
        <mxCell id="hBP3JbaCI2nq2AsKA252-90" value="Không hợp lệ" style="text;align=center;fontStyle=1;verticalAlign=middle;spacingLeft=3;spacingRight=3;strokeColor=none;rotatable=0;points=[[0,0.5],[1,0.5]];portConstraint=eastwest;html=1;" vertex="1" parent="IZtvYsub-rzBRj75f5gO-6">
          <mxGeometry x="300" y="890" width="80" height="26" as="geometry" />
        </mxCell>
        <mxCell id="hBP3JbaCI2nq2AsKA252-91" value="Hợp lệ" style="text;align=center;fontStyle=1;verticalAlign=middle;spacingLeft=3;spacingRight=3;strokeColor=none;rotatable=0;points=[[0,0.5],[1,0.5]];portConstraint=eastwest;html=1;" vertex="1" parent="IZtvYsub-rzBRj75f5gO-6">
          <mxGeometry x="200" y="970" width="80" height="26" as="geometry" />
        </mxCell>
        <mxCell id="hBP3JbaCI2nq2AsKA252-89" style="edgeStyle=orthogonalEdgeStyle;rounded=0;orthogonalLoop=1;jettySize=auto;html=1;exitX=0.5;exitY=1;exitDx=0;exitDy=0;entryX=0.5;entryY=0;entryDx=0;entryDy=0;" edge="1" parent="IZtvYsub-rzBRj75f5gO-6" source="hBP3JbaCI2nq2AsKA252-85" target="hBP3JbaCI2nq2AsKA252-93">
          <mxGeometry relative="1" as="geometry">
            <mxPoint x="210" y="1070" as="targetPoint" />
          </mxGeometry>
        </mxCell>
        <mxCell id="hBP3JbaCI2nq2AsKA252-93" value="Kiểm tra đã có nhóm&lt;br&gt;hay chưa" style="rhombus;whiteSpace=wrap;html=1;fontColor=#000000;fillColor=#ffffc0;strokeColor=#ff0000;" vertex="1" parent="IZtvYsub-rzBRj75f5gO-6">
          <mxGeometry x="110" y="1070" width="180" height="90" as="geometry" />
        </mxCell>
        <mxCell id="hBP3JbaCI2nq2AsKA252-98" value="Chưa có" style="text;align=center;fontStyle=1;verticalAlign=middle;spacingLeft=3;spacingRight=3;strokeColor=none;rotatable=0;points=[[0,0.5],[1,0.5]];portConstraint=eastwest;html=1;" vertex="1" parent="IZtvYsub-rzBRj75f5gO-6">
          <mxGeometry x="200" y="1150" width="80" height="26" as="geometry" />
        </mxCell>
        <mxCell id="hBP3JbaCI2nq2AsKA252-101" style="edgeStyle=orthogonalEdgeStyle;rounded=0;orthogonalLoop=1;jettySize=auto;html=1;" edge="1" parent="IZtvYsub-rzBRj75f5gO-6" source="hBP3JbaCI2nq2AsKA252-99">
          <mxGeometry relative="1" as="geometry">
            <mxPoint x="-440" y="1290" as="targetPoint" />
            <Array as="points">
              <mxPoint x="-144" y="1250" />
              <mxPoint x="-144" y="1251" />
              <mxPoint x="-440" y="1251" />
            </Array>
          </mxGeometry>
        </mxCell>
        <mxCell id="hBP3JbaCI2nq2AsKA252-99" value="Hiển thị scene&lt;br&gt;tạo nhóm mới" style="rounded=1;whiteSpace=wrap;html=1;arcSize=40;fontColor=#000000;fillColor=#ffffc0;strokeColor=#ff0000;" vertex="1" parent="IZtvYsub-rzBRj75f5gO-6">
          <mxGeometry x="140" y="1230" width="120" height="40" as="geometry" />
        </mxCell>
        <mxCell id="hBP3JbaCI2nq2AsKA252-97" style="edgeStyle=orthogonalEdgeStyle;rounded=0;orthogonalLoop=1;jettySize=auto;html=1;" edge="1" parent="IZtvYsub-rzBRj75f5gO-6" source="hBP3JbaCI2nq2AsKA252-93" target="hBP3JbaCI2nq2AsKA252-99">
          <mxGeometry relative="1" as="geometry">
            <mxPoint x="450" y="1115" as="targetPoint" />
          </mxGeometry>
        </mxCell>
        <mxCell id="hBP3JbaCI2nq2AsKA252-104" value="Đã có" style="text;align=center;fontStyle=1;verticalAlign=middle;spacingLeft=3;spacingRight=3;strokeColor=none;rotatable=0;points=[[0,0.5],[1,0.5]];portConstraint=eastwest;html=1;" vertex="1" parent="IZtvYsub-rzBRj75f5gO-6">
          <mxGeometry x="290" y="1090" width="80" height="26" as="geometry" />
        </mxCell>
        <mxCell id="hBP3JbaCI2nq2AsKA252-105" value="Hiển thị scene nhóm&lt;br&gt;đầu tiên" style="rounded=1;whiteSpace=wrap;html=1;arcSize=40;fontColor=#000000;fillColor=#ffffc0;strokeColor=#ff0000;" vertex="1" parent="IZtvYsub-rzBRj75f5gO-6">
          <mxGeometry x="380" y="1380" width="120" height="40" as="geometry" />
        </mxCell>
        <mxCell id="hBP3JbaCI2nq2AsKA252-100" style="edgeStyle=orthogonalEdgeStyle;rounded=0;orthogonalLoop=1;jettySize=auto;html=1;" edge="1" parent="IZtvYsub-rzBRj75f5gO-6" source="hBP3JbaCI2nq2AsKA252-93" target="hBP3JbaCI2nq2AsKA252-105">
          <mxGeometry relative="1" as="geometry">
            <mxPoint x="440" y="1350" as="targetPoint" />
          </mxGeometry>
        </mxCell>
        <mxCell id="hBP3JbaCI2nq2AsKA252-106" value="scene có mở&lt;br&gt;rộng để chuyển&lt;br&gt;sang nhóm&lt;br&gt;khác, tạo&lt;br&gt;nhóm mới,&lt;br&gt;xoá nhóm;&amp;nbsp;&lt;br&gt;thêm thành viên" style="text;align=center;fontStyle=1;verticalAlign=middle;spacingLeft=3;spacingRight=3;strokeColor=none;rotatable=0;points=[[0,0.5],[1,0.5]];portConstraint=eastwest;html=1;" vertex="1" parent="IZtvYsub-rzBRj75f5gO-6">
          <mxGeometry x="510" y="1320" width="80" height="140" as="geometry" />
        </mxCell>
        <mxCell id="hBP3JbaCI2nq2AsKA252-126" style="edgeStyle=orthogonalEdgeStyle;rounded=0;orthogonalLoop=1;jettySize=auto;html=1;entryX=0.75;entryY=1;entryDx=0;entryDy=0;" edge="1" parent="IZtvYsub-rzBRj75f5gO-6" source="hBP3JbaCI2nq2AsKA252-118" target="hBP3JbaCI2nq2AsKA252-105">
          <mxGeometry relative="1" as="geometry" />
        </mxCell>
        <mxCell id="hBP3JbaCI2nq2AsKA252-118" value="Lưu lại các thông tin + ngày tạo realtime;&lt;br&gt;sắp xếp theo thứ tự thêm" style="rounded=1;whiteSpace=wrap;html=1;arcSize=40;fontColor=#000000;fillColor=#ffffc0;strokeColor=#ff0000;" vertex="1" parent="IZtvYsub-rzBRj75f5gO-6">
          <mxGeometry x="125" y="1625" width="150" height="70" as="geometry" />
        </mxCell>
        <mxCell id="hBP3JbaCI2nq2AsKA252-124" value="Tính toán&lt;br&gt;+ xuất hoá đơn&lt;br&gt;bằng file pdf" style="rounded=1;whiteSpace=wrap;html=1;arcSize=40;fontColor=#000000;fillColor=#ffffc0;strokeColor=#ff0000;" vertex="1" parent="IZtvYsub-rzBRj75f5gO-6">
          <mxGeometry x="130" y="1800" width="140" height="50" as="geometry" />
        </mxCell>
        <mxCell id="hBP3JbaCI2nq2AsKA252-133" style="edgeStyle=orthogonalEdgeStyle;rounded=0;orthogonalLoop=1;jettySize=auto;html=1;" edge="1" parent="IZtvYsub-rzBRj75f5gO-6" source="hBP3JbaCI2nq2AsKA252-127">
          <mxGeometry relative="1" as="geometry">
            <mxPoint x="-440" y="1990" as="targetPoint" />
          </mxGeometry>
        </mxCell>
        <mxCell id="hBP3JbaCI2nq2AsKA252-127" value="Lưu file vào hệ thống" style="rounded=1;whiteSpace=wrap;html=1;arcSize=40;fontColor=#000000;fillColor=#ffffc0;strokeColor=#ff0000;" vertex="1" parent="IZtvYsub-rzBRj75f5gO-6">
          <mxGeometry x="125" y="1910" width="150" height="40" as="geometry" />
        </mxCell>
        <mxCell id="hBP3JbaCI2nq2AsKA252-125" style="edgeStyle=orthogonalEdgeStyle;rounded=0;orthogonalLoop=1;jettySize=auto;html=1;" edge="1" parent="IZtvYsub-rzBRj75f5gO-6" source="hBP3JbaCI2nq2AsKA252-124" target="hBP3JbaCI2nq2AsKA252-127">
          <mxGeometry relative="1" as="geometry">
            <mxPoint x="200" y="1909.9999999999995" as="targetPoint" />
          </mxGeometry>
        </mxCell>
        <mxCell id="hBP3JbaCI2nq2AsKA252-109" style="edgeStyle=orthogonalEdgeStyle;rounded=0;orthogonalLoop=1;jettySize=auto;html=1;" edge="1" parent="IZtvYsub-rzBRj75f5gO-3" source="hBP3JbaCI2nq2AsKA252-105">
          <mxGeometry relative="1" as="geometry">
            <mxPoint x="170" y="1490" as="targetPoint" />
          </mxGeometry>
        </mxCell>
        <mxCell id="hBP3JbaCI2nq2AsKA252-117" style="edgeStyle=orthogonalEdgeStyle;rounded=0;orthogonalLoop=1;jettySize=auto;html=1;" edge="1" parent="IZtvYsub-rzBRj75f5gO-3" source="hBP3JbaCI2nq2AsKA252-115" target="hBP3JbaCI2nq2AsKA252-118">
          <mxGeometry relative="1" as="geometry">
            <mxPoint x="820" y="1680" as="targetPoint" />
          </mxGeometry>
        </mxCell>
        <mxCell id="hBP3JbaCI2nq2AsKA252-120" style="edgeStyle=orthogonalEdgeStyle;rounded=0;orthogonalLoop=1;jettySize=auto;html=1;" edge="1" parent="IZtvYsub-rzBRj75f5gO-3" source="hBP3JbaCI2nq2AsKA252-111" target="hBP3JbaCI2nq2AsKA252-124">
          <mxGeometry relative="1" as="geometry">
            <mxPoint x="730" y="1840" as="targetPoint" />
            <Array as="points">
              <mxPoint x="170" y="1840" />
            </Array>
          </mxGeometry>
        </mxCell>
      </root>
    </mxGraphModel>
  </diagram>
</mxfile>
